<svg width="10" height="20" viewBox="0 0 10 20" fill="none" xmlns="http://www.w3.org/2000/svg">
<path fill-rule="evenodd" clip-rule="evenodd" d="M8.46629 17.931H9.31388C9.6625 17.931 9.94595 18.2145 9.94595 18.5631V19.3679C9.94595 19.7166 9.6625 20 9.31388 20H0.922841C0.57422 20 0.290771 19.7166 0.290771 19.3679V18.5631C0.290771 18.2145 0.57422 17.931 0.922841 17.931H1.77008L2.2325 16.6059C2.34698 16.2034 2.8156 15.9293 3.23974 15.8738L3.79629 15.3172C3.88905 15.2245 3.90801 15.0803 3.84284 14.9669C3.29491 14.0103 3.48319 12.7141 3.64457 12.0266C3.66732 11.9283 3.64112 11.8241 3.57698 11.7617C2.60732 10.8179 3.04422 9.27828 3.06319 9.21345L3.07905 9.17035C3.13353 9.04759 3.17043 8.90897 3.1887 8.75724C3.25698 8.19345 2.92284 7.71138 2.71767 7.47414C1.92491 6.55793 2.09319 5.00241 2.26422 4.15621C2.34319 3.76586 2.63112 3.45552 3.01594 3.34552L4.20457 3.00586C3.92112 2.69 3.73905 2.23517 3.73905 1.72414C3.73905 0.773448 4.35767 0 5.11836 0C5.87905 0 6.49767 0.773448 6.49767 1.72414C6.49767 2.23517 6.3156 2.69 6.03215 3.00586L7.22112 3.34552C7.6056 3.45552 7.89353 3.76586 7.9725 4.15621C8.14353 5.00241 8.31181 6.55793 7.51905 7.47414C7.31388 7.71138 6.97974 8.19345 7.04802 8.75724C7.06629 8.90897 7.10319 9.04759 7.15767 9.17035L7.17319 9.21345C7.1925 9.27828 7.62939 10.8179 6.65974 11.7617C6.5956 11.8241 6.56905 11.9283 6.59215 12.0266C6.75353 12.7141 6.94181 14.0103 6.39388 14.9669C6.3287 15.0803 6.34767 15.2245 6.44043 15.3172L6.99698 15.8738C7.42112 15.9297 7.89043 16.2055 8.01008 16.6248L8.46629 17.931ZM3.39422 16.5517C3.18112 16.5517 2.92077 16.7041 2.88974 16.8141L2.50043 17.931H7.73629L7.35284 16.8328C7.31595 16.7041 7.0556 16.5517 6.8425 16.5517H3.39422Z" fill="#0C1932" fill-opacity="0.6"/>
</svg>
