<?xml version="1.0" standalone="no"?>
<!DOCTYPE svg PUBLIC "-//W3C//DTD SVG 20010904//EN"
 "http://www.w3.org/TR/2001/REC-SVG-20010904/DTD/svg10.dtd">
<svg version="1.0" xmlns="http://www.w3.org/2000/svg"
 width="232.000000pt" height="217.000000pt" viewBox="0 0 232.000000 217.000000"
 preserveAspectRatio="xMidYMid meet">

<g transform="translate(0.000000,217.000000) scale(0.100000,-0.100000)"
fill="#000000" stroke="none">
<path d="M618 2153 c7 -3 16 -2 19 1 4 3 -2 6 -13 5 -11 0 -14 -3 -6 -6z"/>
<path d="M530 2139 c-60 -17 -123 -49 -190 -99 -62 -46 -136 -116 -85 -81 11
8 -2 -5 -28 -29 -28 -25 -46 -48 -43 -56 3 -8 -1 -14 -9 -14 -8 0 -17 -11 -21
-25 -3 -14 -10 -25 -15 -25 -5 0 -9 -5 -9 -11 0 -5 4 -7 10 -4 14 9 50 -13 50
-31 0 -8 -15 -28 -32 -45 -29 -26 -31 -32 -20 -50 7 -11 10 -25 6 -31 -12 -19
-34 65 -29 107 l6 40 -22 -40 c-12 -22 -36 -78 -52 -125 -26 -73 -31 -103 -35
-215 -3 -108 -1 -145 16 -216 81 -339 379 -713 754 -947 238 -149 452 -221
680 -229 164 -6 251 9 373 66 110 52 269 167 258 187 -8 13 -1 24 15 22 11 -2
16 3 14 14 -2 10 1 18 6 18 4 0 17 7 28 15 19 15 19 15 -1 9 -11 -4 -4 5 16
19 61 43 141 225 138 313 -1 27 -2 26 -10 -7 -33 -143 -136 -254 -267 -291
-76 -20 -118 -23 -57 -3 37 13 33 13 -55 8 -52 -3 -98 -10 -101 -15 -3 -5 -13
-6 -22 -2 -10 3 -17 1 -17 -5 0 -6 7 -11 15 -11 8 0 15 -4 15 -10 0 -21 -71
-5 -142 32 -21 10 -59 25 -85 32 -27 7 -57 16 -68 21 -16 5 -17 5 -5 -4 21
-15 7 -14 -24 2 -14 8 -22 18 -18 22 4 5 -1 5 -11 2 -10 -4 -16 -3 -12 3 9 14
-32 31 -58 25 -15 -4 -30 -1 -38 8 -20 19 -60 40 -81 41 -10 1 -18 6 -18 11 0
6 -15 15 -33 21 -21 7 -32 18 -33 31 -1 19 2 20 35 11 20 -6 45 -18 57 -29 11
-10 27 -19 35 -19 8 0 45 -20 82 -45 38 -25 76 -45 85 -45 23 0 7 12 -68 52
-120 64 -163 90 -272 163 -59 40 -105 68 -101 61 3 -6 -8 2 -24 17 -20 18 -33
25 -38 18 -4 -8 -13 -7 -28 1 -26 15 -59 19 -51 6 3 -4 10 -6 15 -3 5 4 9 1 9
-4 0 -6 6 -11 14 -11 7 0 20 -8 27 -17 12 -14 12 -16 -1 -9 -8 4 -4 -3 10 -15
19 -17 20 -21 6 -16 -14 6 -17 4 -12 -10 4 -10 -22 11 -58 47 -37 35 -66 66
-66 68 0 1 9 -2 19 -7 14 -8 22 -7 31 4 15 19 7 29 -57 75 -26 19 -42 26 -34
17 13 -16 2 -25 -13 -9 -4 4 -18 7 -29 7 -12 0 -22 6 -22 14 0 8 -7 17 -16 20
-24 9 -114 115 -180 214 -65 95 -116 191 -149 279 -11 30 -29 65 -40 78 -24
28 -36 85 -51 247 l-12 131 25 54 c15 31 34 58 42 61 9 4 16 13 16 20 0 23 74
75 152 106 72 30 76 38 8 20z m-290 -213 c0 -2 -8 -10 -17 -17 -16 -13 -17
-12 -4 4 13 16 21 21 21 13z m-86 -435 c-19 -46 -29 -54 -19 -16 4 17 8 39 10
50 4 30 5 31 14 16 6 -10 4 -27 -5 -50z m-22 -48 c8 -17 8 -26 -2 -38 -11 -13
-9 -15 13 -15 14 0 28 -7 31 -16 9 -23 7 -34 -4 -34 -5 0 -10 7 -10 15 0 17
-16 20 -26 4 -12 -20 15 -32 69 -34 54 -1 107 -24 107 -46 0 -6 -7 -4 -15 5
-16 16 -82 32 -92 23 -3 -3 2 -20 11 -38 9 -18 16 -38 16 -44 0 -7 7 -15 15
-19 8 -3 15 -16 15 -29 0 -13 9 -32 20 -42 11 -10 20 -24 20 -31 0 -7 8 -19
18 -26 21 -16 142 -175 142 -188 0 -5 9 -12 20 -15 11 -3 22 -16 25 -28 3 -12
19 -30 35 -39 18 -10 30 -25 30 -37 0 -22 14 -26 122 -35 67 -5 110 -30 106
-60 -4 -25 -42 -34 -64 -15 -9 7 -14 23 -11 35 3 18 -1 23 -27 27 -54 8 -92
-14 -45 -26 11 -3 23 -15 26 -26 3 -11 18 -24 34 -30 16 -5 29 -17 29 -25 0
-9 9 -16 19 -16 11 0 26 -9 33 -19 8 -11 26 -25 41 -32 15 -7 27 -20 27 -31 0
-13 7 -18 25 -18 14 0 28 -7 31 -15 3 -8 21 -19 40 -25 19 -6 34 -18 34 -26 0
-12 17 -20 60 -25 8 -2 44 1 81 5 50 6 74 4 102 -8 38 -16 49 -39 21 -50 -8
-3 -12 -10 -9 -16 14 -22 -23 -8 -49 19 -19 20 -24 30 -14 33 7 3 -8 5 -34 6
-26 1 -49 -2 -52 -7 -8 -12 46 -45 107 -66 44 -15 54 -15 109 -1 41 10 66 12
79 6 10 -6 29 -10 43 -10 32 0 61 -27 46 -45 -12 -15 -86 -28 -150 -26 -25 0
-77 -8 -115 -19 -39 -11 -100 -22 -135 -25 l-65 -5 75 14 c84 16 139 34 105
35 -11 1 -31 8 -44 17 -15 11 -46 17 -94 18 -58 1 -78 6 -105 25 -26 18 -32
29 -30 50 3 23 8 26 53 31 37 4 44 7 28 12 -13 3 -40 4 -61 1 -29 -4 -43 -1
-57 13 -18 19 -18 19 0 23 11 2 21 -2 23 -8 5 -14 39 -15 47 -1 10 16 -44 23
-149 18 -56 -3 -114 -2 -131 2 -22 6 -11 8 43 9 89 1 176 20 146 32 -10 4 -30
8 -44 8 -20 1 -22 -1 -10 -9 13 -8 12 -10 -4 -10 -16 0 -69 36 -120 82 -22 20
-24 20 -81 19 -22 0 -56 3 -75 8 -32 8 -29 9 29 10 72 1 149 20 129 32 -6 4
-24 5 -39 2 -31 -6 -69 11 -69 32 0 19 28 19 32 0 2 -10 7 -12 18 -5 24 15 -2
32 -47 32 -56 -1 -74 14 -27 22 45 9 28 26 -23 24 -18 -1 -39 5 -48 12 -21 17
-19 42 3 38 9 -2 16 -10 14 -17 -3 -16 30 -10 35 6 5 13 -33 28 -60 24 -24 -3
-67 25 -67 44 0 8 7 15 15 15 8 0 15 -9 15 -20 0 -22 15 -27 26 -9 14 24 -18
34 -109 34 -51 0 -100 5 -109 10 -12 7 9 10 72 10 58 0 93 4 102 13 9 9 -5 12
-72 13 -103 1 -157 17 -65 19 33 1 54 4 48 7 -7 2 -13 12 -13 20 0 28 -52 67
-86 64 -19 -1 -39 5 -55 18 l-24 20 31 -11 c37 -13 69 -4 60 17 -3 8 -9 21
-12 29 -4 10 1 12 20 9 14 -3 26 -1 26 5 0 17 -25 31 -46 26 -24 -6 -49 19
-40 41 8 23 28 18 21 -5 -5 -15 -3 -18 9 -14 25 10 18 33 -11 40 -51 11 -55
14 -50 35 3 12 0 22 -9 26 -23 9 -16 23 12 23 15 0 23 4 19 10 -4 6 -24 9 -46
7 -23 -2 -54 3 -76 13 l-38 17 48 -5 c47 -5 47 -5 47 26 0 17 -4 41 -9 54 -4
13 -6 41 -3 63 3 23 7 31 9 20 2 -11 9 -30 15 -42z m92 -46 c7 -7 10 -20 7
-30 -6 -17 -8 -17 -28 1 -17 14 -19 22 -11 30 15 15 17 15 32 -1z m111 -238
c-3 -5 0 -6 8 -3 8 3 18 1 22 -5 3 -6 2 -11 -4 -11 -6 0 -8 -7 -5 -15 8 -20
-22 -9 -48 17 -15 15 -15 18 -3 18 8 0 15 5 15 11 0 5 5 7 10 4 6 -4 8 -11 5
-16z m543 -345 c-8 -7 -48 27 -43 36 3 5 15 0 26 -11 11 -11 19 -22 17 -25z
m-62 24 c3 -4 -1 -5 -10 -4 -8 1 -18 5 -22 8 -3 4 1 5 10 4 8 -1 18 -5 22 -8z
m223 -129 c17 -6 36 -20 41 -30 8 -15 7 -17 -5 -13 -8 4 -15 10 -15 15 0 5 -6
9 -13 9 -13 0 -58 29 -46 30 3 0 20 -5 38 -11z m106 -71 c14 -6 25 -15 25 -20
0 -5 -13 -2 -30 7 -45 23 -41 34 5 13z m-45 -34 c0 -2 -9 0 -20 6 -11 6 -20
13 -20 16 0 2 9 0 20 -6 11 -6 20 -13 20 -16z m50 -18 c0 -2 -9 -2 -20 1 -11
3 -20 9 -20 15 0 5 9 4 20 -2 11 -6 20 -12 20 -14z m-140 -87 c0 -5 10 -9 21
-7 16 2 23 -3 25 -19 3 -18 -1 -21 -24 -19 -37 4 -72 17 -72 27 0 8 29 28 43
29 4 0 7 -5 7 -11z m1128 -113 c-2 -1 -12 -8 -22 -16 -18 -14 -18 -14 -6 7 8
12 18 19 23 16 4 -3 7 -6 5 -7z m-250 -23 c-10 -2 -26 -2 -35 0 -10 3 -2 5 17
5 19 0 27 -2 18 -5z m-81 -117 c-10 -8 -26 -12 -35 -9 -18 4 -107 -31 -117
-47 -6 -10 28 -15 73 -11 12 1 22 -2 22 -7 0 -9 84 -7 100 3 5 3 32 10 60 15
55 10 120 37 132 54 4 6 8 7 8 2 0 -5 8 -3 18 5 9 7 4 -1 -13 -18 -16 -17 -32
-31 -35 -31 -22 1 -30 -3 -25 -12 4 -6 -1 -7 -11 -3 -11 4 -15 3 -10 -5 9 -15
-33 -37 -63 -33 -14 2 -21 -1 -17 -8 4 -5 -7 -17 -24 -26 -38 -19 -40 -11 -2
10 15 9 19 14 9 11 -10 -3 -28 -6 -38 -6 -11 0 -17 -5 -14 -10 9 -15 -11 -12
-24 4 -9 11 -9 15 0 18 7 2 -5 4 -26 5 -21 1 -48 -5 -59 -12 -24 -16 -111 -14
-111 2 0 23 -14 24 -57 5 -49 -23 -128 -45 -134 -39 -3 2 16 10 41 17 55 15
49 30 -13 30 -69 0 -123 11 -129 26 -2 7 5 22 16 33 17 17 25 18 55 10 20 -6
36 -14 36 -19 0 -21 38 -30 67 -15 31 17 83 20 83 6 0 -16 -22 -24 -29 -12 -8
13 -41 4 -41 -10 0 -21 61 -6 148 37 61 30 102 45 118 41 13 -2 27 0 30 4 3 5
11 9 17 9 7 0 4 -7 -6 -14z m-157 -15 c0 -20 -29 -32 -60 -24 -16 4 -17 7 -6
18 7 7 24 15 37 18 13 2 25 5 27 6 1 0 2 -7 2 -18z m-349 -14 c-1 -12 -15 -9
-19 4 -3 6 1 10 8 8 6 -3 11 -8 11 -12z m555 -13 c-22 -15 -46 -19 -46 -6 0 9
52 31 60 24 3 -2 -4 -10 -14 -18z m-266 -64 c-8 -5 -19 -10 -25 -10 -5 0 -3 5
5 10 8 5 20 10 25 10 6 0 3 -5 -5 -10z m180 -7 c-1 -10 -30 -49 -30 -40 0 5
-6 2 -14 -5 -8 -7 -12 -16 -10 -19 2 -4 -18 -7 -44 -7 l-47 0 50 17 c28 10 50
22 50 27 0 17 16 34 31 34 8 0 14 -3 14 -7z m24 -28 c-4 -8 -8 -15 -10 -15 -2
0 -4 7 -4 15 0 8 4 15 10 15 5 0 7 -7 4 -15z m-401 -12 c-7 -2 -19 -2 -25 0
-7 3 -2 5 12 5 14 0 19 -2 13 -5z"/>
<path d="M180 1235 c0 -9 5 -15 11 -13 6 2 11 8 11 13 0 5 -5 11 -11 13 -6 2
-11 -4 -11 -13z"/>
<path d="M270 1062 c0 -15 5 -19 20 -15 24 6 21 26 -3 31 -11 2 -17 -3 -17
-16z"/>
<path d="M300 1016 c0 -8 6 -16 13 -18 20 -8 36 2 30 18 -7 18 -43 18 -43 0z"/>
<path d="M342 958 c3 -7 15 -15 27 -16 16 -3 22 1 19 10 -3 7 -15 15 -27 16
-16 3 -22 -1 -19 -10z"/>
<path d="M700 575 c31 -18 63 -19 58 -2 -3 6 -22 13 -44 15 -39 2 -39 2 -14
-13z"/>
<path d="M760 525 c15 -18 51 -16 58 3 2 8 -8 12 -33 12 -33 0 -36 -2 -25 -15z"/>
<path d="M958 374 c-26 -26 27 -84 76 -84 19 0 19 0 0 21 -14 16 -16 22 -5 28
19 12 53 1 58 -20 6 -23 18 -26 73 -19 l45 5 -40 14 c-22 7 -55 22 -72 32 -36
20 -124 35 -135 23z"/>
<path d="M1280 300 c-13 -9 -13 -10 0 -9 8 1 26 5 40 9 l25 8 -25 1 c-14 0
-32 -4 -40 -9z"/>
<path d="M1350 293 c-46 -14 -45 -13 -30 -23 8 -6 30 -10 48 -10 25 0 32 4 32
20 0 11 -5 20 -11 20 -5 0 -7 -6 -3 -12 6 -10 4 -10 -7 -2 -8 6 -21 9 -29 7z"/>
<path d="M1197 283 c-16 -15 -4 -23 35 -23 39 0 40 1 22 15 -20 15 -46 19 -57
8z"/>
<path d="M1845 155 l-30 -14 35 6 c40 7 45 9 33 16 -4 3 -21 -1 -38 -8z"/>
<path d="M1628 148 c9 -9 15 -9 24 0 9 9 7 12 -12 12 -19 0 -21 -3 -12 -12z"/>
<path d="M1680 150 c-8 -5 -7 -9 3 -13 9 -3 20 0 26 7 8 9 7 13 -4 13 -8 0
-19 -3 -25 -7z"/>
<path d="M805 2076 c28 -12 25 -13 -60 -19 -49 -3 -114 -12 -143 -20 -39 -11
-49 -11 -42 -2 8 10 -1 9 -32 -2 -23 -8 -48 -23 -56 -34 -7 -11 -17 -17 -22
-14 -8 5 -34 -53 -31 -69 1 -5 -1 -16 -5 -25 -12 -27 -13 -34 -24 -96 -6 -33
-9 -70 -5 -82 4 -19 9 -21 37 -12 44 12 180 11 254 -2 156 -27 369 -114 524
-214 382 -244 677 -647 697 -951 l6 -80 51 2 c46 3 149 32 119 33 -7 1 -13 5
-13 9 0 5 10 8 23 7 12 -1 30 4 39 12 10 9 22 12 30 7 10 -6 11 -5 1 7 -10 12
-8 17 8 27 11 7 19 18 18 25 -1 7 -1 19 0 27 1 13 2 13 11 0 7 -12 13 -9 32
15 28 35 36 58 37 107 1 41 -14 59 -24 28 -3 -11 -11 -20 -16 -20 -5 0 -9 -4
-9 -10 0 -5 7 -10 16 -10 11 0 14 -8 12 -32 -2 -18 -7 -32 -13 -30 -5 2 -9 12
-8 23 2 11 -1 17 -7 14 -13 -8 -13 71 0 96 7 13 7 19 0 19 -5 0 -10 -6 -11
-12 0 -7 -8 10 -18 37 -37 102 -64 170 -74 183 -5 7 -7 15 -4 18 7 7 48 -73
72 -143 10 -29 25 -55 32 -57 16 -6 18 10 2 20 -6 3 -8 18 -5 33 2 14 -1 44
-9 66 -7 22 -16 53 -20 68 -3 15 -10 25 -15 22 -6 -3 -10 1 -10 9 0 8 -7 21
-15 30 -14 14 -23 41 -24 77 -1 9 -41 63 -91 120 -49 57 -90 112 -90 121 0 10
-5 15 -13 12 -17 -6 -157 138 -158 162 -1 11 -1 26 0 34 0 10 -1 11 -5 3 -8
-19 -27 -16 -20 2 6 16 -30 65 -47 65 -6 0 -2 -9 8 -20 10 -11 14 -20 8 -20
-11 0 -86 86 -81 94 6 9 -47 59 -102 95 -82 55 -170 104 -170 94 0 -4 12 -14
28 -21 15 -6 38 -21 52 -32 14 -11 36 -29 50 -40 14 -10 20 -19 13 -20 -6 0
-18 6 -26 14 -8 8 -24 12 -35 9 -13 -3 -36 6 -65 25 -24 17 -56 34 -71 38 -16
4 -31 17 -37 31 -12 32 -13 31 16 25 36 -6 31 5 -7 16 -18 6 -42 13 -53 18
-16 6 -15 3 5 -14 l25 -21 -29 -1 c-16 0 -44 10 -64 22 -33 20 -61 25 -174 27
-40 1 -47 4 -50 24 -2 14 -11 23 -25 25 -13 2 -23 9 -23 16 0 8 -17 16 -37 20
-58 9 -71 6 -38 -8z m-25 -61 c0 -8 -71 -75 -80 -75 -5 0 -12 5 -15 10 -7 11
-54 -19 -55 -34 0 -5 17 -5 38 -1 20 4 45 7 54 7 9 -1 35 19 57 43 22 24 41
42 43 40 2 -1 23 -6 47 -9 24 -3 54 -12 66 -20 12 -8 32 -12 46 -9 14 2 49 -5
78 -16 30 -11 58 -18 62 -15 5 3 14 0 21 -6 19 -16 123 -78 198 -118 62 -33
163 -116 153 -125 -2 -3 0 -8 6 -12 6 -3 11 -1 11 5 0 6 17 0 37 -14 20 -14
40 -23 45 -20 4 3 8 0 8 -5 0 -6 30 -39 66 -74 100 -94 207 -205 223 -232 8
-13 25 -28 38 -34 20 -9 28 -28 24 -54 -2 -12 29 -67 38 -67 4 0 8 -7 8 -15 0
-23 -10 -18 -41 24 -16 22 -40 42 -54 46 -21 5 -23 10 -19 34 5 26 3 29 -25
35 -17 3 -33 4 -36 2 -2 -3 7 -25 21 -49 27 -45 58 -72 92 -78 11 -3 21 -14
23 -26 3 -20 0 -21 -35 -16 -36 6 -37 6 -20 -12 12 -12 15 -21 8 -28 -13 -13
-55 14 -72 44 -9 18 -8 24 6 31 15 9 15 11 -2 31 -11 12 -27 35 -37 50 -19 31
-59 50 -87 42 -40 -13 -9 -85 35 -85 19 1 19 2 4 11 -24 14 -23 39 2 39 22 0
37 -38 26 -66 -5 -13 -14 -15 -39 -10 -39 8 -64 32 -76 74 -8 28 -6 34 17 52
18 15 34 19 52 15 14 -4 21 -3 17 1 -4 5 -29 11 -55 14 -35 4 -49 10 -56 26
-8 19 -14 20 -71 12 -34 -5 -79 -5 -101 0 -37 8 -36 9 35 15 76 8 98 15 71 25
-8 3 -33 24 -56 47 l-41 42 -99 -3 -99 -3 70 13 c76 15 166 40 110 31 -60 -10
-231 -15 -205 -6 14 5 41 10 60 10 76 3 103 23 54 41 -14 6 -28 20 -31 31 -4
16 -11 19 -27 14 -63 -20 -135 -35 -166 -34 -28 1 -19 5 39 20 41 10 76 21 79
24 7 7 -22 32 -47 40 -19 6 -22 12 -16 33 6 26 5 25 -14 -5 -24 -38 -70 -53
-156 -52 l-60 1 62 9 c80 12 113 25 113 44 0 9 -4 14 -9 10 -5 -3 -12 -1 -16
5 -3 5 6 12 20 16 14 3 25 11 25 16 0 6 -8 7 -17 3 -49 -20 -74 -23 -86 -12
-7 7 -19 13 -27 15 -10 1 -9 -2 4 -13 15 -11 16 -17 7 -28 -14 -18 -49 -12
-81 14 -21 16 -23 20 -10 29 8 5 26 6 39 3 15 -4 22 -2 18 4 -12 19 -61 22
-91 6 -44 -23 -136 -53 -136 -45 0 4 30 20 66 36 51 23 62 31 50 38 -23 13
-20 33 9 52 31 21 75 21 75 1 0 -19 3 -19 42 5 l32 19 -37 -6 c-39 -6 -43 -3
-27 26 8 15 3 21 -32 34 -39 16 -42 15 -68 -3 -16 -11 -33 -20 -39 -20 -6 0
-11 -4 -11 -9 0 -5 -19 -12 -42 -16 -28 -5 -59 -20 -88 -44 -51 -42 -115 -81
-133 -81 -7 0 10 14 36 32 33 21 44 34 36 39 -14 9 -44 -4 -75 -33 -29 -26
-94 -36 -94 -15 0 9 -5 19 -10 22 -6 4 -9 3 -8 -2 5 -14 -41 -57 -62 -58 -26
-2 -25 0 5 33 25 27 34 49 15 37 -14 -9 9 52 26 66 18 15 18 5 -1 -31 -9 -17
-13 -30 -11 -30 20 0 94 53 106 76 18 34 41 54 54 47 5 -4 -3 -17 -19 -30 -15
-13 -25 -27 -22 -30 8 -7 55 27 97 72 l35 37 -55 -6 c-30 -3 -79 -12 -108 -19
-66 -18 -53 2 18 27 41 14 230 23 230 11z m-10 -160 c0 -8 -4 -15 -10 -15 -5
0 -10 7 -10 15 0 8 5 15 10 15 6 0 10 -7 10 -15z m700 -67 c0 -13 -23 -5 -28
10 -2 7 2 10 12 6 9 -3 16 -11 16 -16z m88 -9 c17 -27 5 -40 -14 -15 -8 11
-14 23 -14 28 0 15 15 8 28 -13z m66 -74 c11 -8 16 -15 12 -15 -4 0 0 -7 8
-16 15 -15 21 -34 11 -34 -2 0 -20 11 -40 24 -20 14 -41 26 -47 28 -16 6 0 28
20 28 9 0 26 -7 36 -15z m399 -589 c4 -10 1 -13 -9 -9 -7 3 -14 9 -14 14 0 14
17 10 23 -5z m27 -36 c0 -5 -4 -10 -9 -10 -6 0 -13 5 -16 10 -3 6 1 10 9 10 9
0 16 -4 16 -10z m40 -9 c7 -15 7 -22 -2 -27 -7 -4 -10 -4 -6 1 4 4 3 16 -3 26
-5 11 -7 19 -5 19 3 0 10 -9 16 -19z m-34 -20 c-4 -5 -1 -11 5 -13 15 -5 0
-38 -18 -38 -9 0 -21 8 -28 17 -11 14 -10 20 4 30 19 14 45 17 37 4z m-72 -40
c-1 -22 2 -23 53 -19 52 5 55 3 69 -25 9 -16 13 -31 11 -34 -3 -2 -10 5 -17
16 -8 16 -20 21 -49 21 l-39 0 15 -47 c8 -27 16 -58 19 -70 2 -13 7 -35 11
-50 3 -16 7 -54 7 -86 1 -55 2 -57 28 -57 17 0 31 -8 38 -19 13 -25 13 -41 0
-41 -5 0 -10 9 -10 20 0 11 -6 23 -14 26 -27 10 -53 -15 -69 -66 -17 -54 -32
-74 -57 -77 -8 -1 -25 -5 -37 -9 -13 -3 -23 -2 -23 4 0 5 11 13 25 16 14 4 23
11 20 16 -5 9 7 14 27 11 3 0 4 13 1 29 -3 25 0 32 19 39 21 9 21 10 3 11
l-20 1 20 15 c20 16 20 16 -2 9 -37 -10 -83 -9 -95 3 -9 9 0 12 35 12 l48 0
-3 34 c-2 30 -4 33 -20 25 -20 -11 -62 -3 -77 14 -7 9 3 12 37 12 45 0 47 1
45 28 -1 20 3 27 17 27 10 0 22 5 26 12 4 7 3 8 -4 4 -28 -17 -61 28 -66 89
-1 6 -7 14 -15 19 -11 7 -7 11 15 21 25 10 18 11 -51 8 -58 -4 -85 -1 -98 9
-16 12 -11 14 40 13 50 0 58 3 61 20 7 42 12 46 44 43 27 -2 33 -7 32 -27z
m156 -136 c0 -3 6 -21 14 -40 8 -19 12 -35 9 -35 -3 0 0 -7 7 -15 14 -17 5
-50 -11 -39 -6 3 -9 19 -7 34 3 22 1 27 -11 22 -11 -4 -13 -1 -8 13 6 14 5 16
-7 6 -15 -13 -42 -6 -49 13 -3 7 3 18 13 24 14 9 19 8 24 -3 3 -8 11 -15 18
-15 9 0 9 3 0 12 -7 7 -12 20 -12 30 0 10 -6 18 -12 18 -9 0 -8 3 2 10 11 7
17 4 22 -11 4 -10 8 -21 8 -24z m32 -207 c-7 -7 -12 -8 -12 -2 0 14 12 26 19
19 2 -3 -1 -11 -7 -17z m-58 -149 c-3 -5 -10 -7 -15 -3 -5 3 -7 10 -3 15 3 5
10 7 15 3 5 -3 7 -10 3 -15z m-64 -29 c0 -5 -5 -10 -11 -10 -5 0 -7 5 -4 10 3
6 8 10 11 10 2 0 4 -4 4 -10z m-80 -15 c0 -8 -4 -15 -10 -15 -5 0 -10 7 -10
15 0 8 5 15 10 15 6 0 10 -7 10 -15z"/>
<path d="M805 1934 l-30 -25 30 6 c36 8 38 9 33 29 -2 13 -8 11 -33 -10z"/>
<path d="M667 1894 c-3 -4 -20 -9 -38 -13 -27 -5 -30 -8 -16 -19 12 -10 17
-10 28 1 8 7 23 18 34 25 11 6 15 12 9 12 -6 0 -13 -3 -17 -6z"/>
<path d="M702 1888 c-19 -19 -14 -30 8 -18 11 6 20 15 20 20 0 14 -14 12 -28
-2z"/>
<path d="M1088 1869 c-24 -13 -23 -29 2 -29 11 0 20 -4 20 -10 0 -5 11 -10 25
-10 14 0 28 -7 31 -15 4 -8 15 -15 27 -15 11 0 17 3 14 7 -4 3 3 17 15 30 16
17 18 22 6 18 -9 -4 -29 0 -45 8 -42 21 -76 27 -95 16z"/>
<path d="M551 1840 c-39 -33 -40 -56 -1 -37 14 7 25 17 25 22 0 6 4 16 9 23
15 24 2 21 -33 -8z"/>
<path d="M937 1853 c-12 -11 -8 -23 8 -23 8 0 15 7 15 15 0 16 -12 20 -23 8z"/>
<path d="M1050 1809 c0 -5 5 -7 10 -4 6 3 10 8 10 11 0 2 -4 4 -10 4 -5 0 -10
-5 -10 -11z"/>
<path d="M1227 1773 c2 -6 16 -14 31 -18 25 -5 140 -70 152 -85 3 -3 26 -18
52 -33 26 -15 53 -36 60 -46 7 -10 24 -20 38 -23 14 -3 34 -9 45 -13 20 -8 20
-8 1 13 -11 12 -24 22 -30 22 -6 0 -25 15 -42 33 -17 19 -53 45 -81 58 -28 13
-53 31 -56 41 -9 31 -80 67 -129 65 -30 -1 -44 -6 -41 -14z"/>
<path d="M1258 1703 c7 -3 16 -2 19 1 4 3 -2 6 -13 5 -11 0 -14 -3 -6 -6z"/>
<path d="M1305 1680 c-3 -5 3 -10 15 -10 12 0 18 5 15 10 -3 6 -10 10 -15 10
-5 0 -12 -4 -15 -10z"/>
<path d="M1390 1620 c0 -5 4 -10 9 -10 6 0 13 5 16 10 3 6 -1 10 -9 10 -9 0
-16 -4 -16 -10z"/>
<path d="M1440 1590 c0 -5 7 -10 16 -10 8 0 12 5 9 10 -3 6 -10 10 -16 10 -5
0 -9 -4 -9 -10z"/>
<path d="M1520 1510 c20 -13 53 -13 45 0 -3 6 -18 10 -33 10 -21 0 -24 -2 -12
-10z"/>
<path d="M1660 1500 c0 -5 5 -10 10 -10 6 0 10 5 10 10 0 6 -4 10 -10 10 -5 0
-10 -4 -10 -10z"/>
<path d="M1706 1472 c-4 -7 -17 -12 -29 -13 l-22 0 23 -11 c12 -6 22 -17 22
-24 0 -18 23 -23 39 -7 11 12 11 16 -2 26 -8 7 -17 19 -19 27 -3 10 -6 11 -12
2z"/>
<path d="M1583 1463 c9 -2 23 -2 30 0 6 3 -1 5 -18 5 -16 0 -22 -2 -12 -5z"/>
<path d="M1628 1423 c7 -3 16 -2 19 1 4 3 -2 6 -13 5 -11 0 -14 -3 -6 -6z"/>
<path d="M1747 1380 c5 -19 32 -41 64 -53 13 -4 16 0 15 19 -1 18 -8 26 -26
30 -14 3 -32 9 -41 14 -13 7 -16 5 -12 -10z"/>
<path d="M1680 1375 c0 -9 6 -12 15 -9 8 4 15 7 15 9 0 2 -7 5 -15 9 -9 3 -15
0 -15 -9z"/>
<path d="M1942 1003 c2 -9 8 -18 15 -20 7 -3 9 3 6 16 -6 25 -26 28 -21 4z"/>
<path d="M1980 910 c0 -5 5 -10 10 -10 6 0 10 5 10 10 0 6 -4 10 -10 10 -5 0
-10 -4 -10 -10z"/>
<path d="M2020 770 c0 -5 5 -10 11 -10 5 0 7 5 4 10 -3 6 -8 10 -11 10 -2 0
-4 -4 -4 -10z"/>
<path d="M2025 730 c-3 -5 1 -10 10 -10 9 0 13 5 10 10 -3 6 -8 10 -10 10 -2
0 -7 -4 -10 -10z"/>
<path d="M2020 680 c0 -5 5 -10 10 -10 6 0 10 5 10 10 0 6 -4 10 -10 10 -5 0
-10 -4 -10 -10z"/>
<path d="M598 2053 c7 -3 16 -2 19 1 4 3 -2 6 -13 5 -11 0 -14 -3 -6 -6z"/>
<path d="M399 2023 c-13 -16 -12 -17 4 -4 9 7 17 15 17 17 0 8 -8 3 -21 -13z"/>
<path d="M130 1750 c-17 -42 -6 -49 14 -9 19 37 19 39 7 39 -5 0 -14 -14 -21
-30z"/>
<path d="M815 950 c33 -33 62 -60 64 -60 3 0 -21 27 -54 60 -33 33 -62 60 -64
60 -3 0 21 -27 54 -60z"/>
<path d="M2232 880 c0 -14 2 -19 5 -12 2 6 2 18 0 25 -3 6 -5 1 -5 -13z"/>
<path d="M915 860 c10 -11 20 -20 23 -20 3 0 -3 9 -13 20 -10 11 -20 20 -23
20 -3 0 3 -9 13 -20z"/>
<path d="M960 826 c0 -2 8 -10 18 -17 15 -13 16 -12 3 4 -13 16 -21 21 -21 13z"/>
<path d="M2252 810 c0 -14 2 -19 5 -12 2 6 2 18 0 25 -3 6 -5 1 -5 -13z"/>
<path d="M1813 453 c15 -2 39 -2 55 0 15 2 2 4 -28 4 -30 0 -43 -2 -27 -4z"/>
</g>
</svg>
